<?xml version="1.0" ?><svg xmlns="http://www.w3.org/2000/svg" width="500" height="500" viewBox="0 0 500 500" fill="none"><path d="M82 199.474L173.5 73L345 81.4833L417.103 199.474V300.974L345 427.718H173.5L82 327.474V199.474Z" fill="#84C253"/><path d="M282.182 284.936L347.636 288.867C344.56 317.464 333.964 339.396 315.849 354.663C297.847 369.93 275.688 377.563 249.369 377.563C217.696 377.563 192.118 367.081 172.636 346.118C153.153 325.154 143.412 296.215 143.412 259.301C143.412 222.729 152.641 193.221 171.098 170.776C189.555 148.331 215.303 137.109 248.344 137.109C279.219 137.109 302.917 145.654 319.438 162.744C336.072 179.833 345.471 202.506 347.636 230.761L280.814 234.35C280.814 218.741 277.795 207.462 271.757 200.512C265.832 193.562 258.826 190.087 250.736 190.087C228.178 190.087 216.898 212.76 216.898 258.105C216.898 283.512 219.804 300.773 225.614 309.887C231.539 319.002 239.799 323.559 250.395 323.559C269.307 323.559 279.903 310.685 282.182 284.936Z" fill="white"/></svg>